<?xml version="1.0" encoding="utf-8"?>
<!-- Generator: Adobe Illustrator 25.2.1, SVG Export Plug-In . SVG Version: 6.00 Build 0)  -->
<svg version="1.1" id="LSV-_Logo" xmlns="http://www.w3.org/2000/svg" xmlns:xlink="http://www.w3.org/1999/xlink" x="0px" y="0px"
	 viewBox="0 0 1088.3 166" style="enable-background:new 0 0 1088.3 166;" xml:space="preserve">
<style type="text/css">
	.st0{fill:#E4DFD1;}
	.st1{fill:#3D3D3D;}
</style>
<g id="Grupo_4" transform="translate(678.767 18.821)">
	<g id="Grupo_3">
		<path id="Trazado_10" class="st0" d="M24.4,13.3L51.5,89l27-75.7h24.4L62.5,122.5h-22L0,13.3L24.4,13.3z"/>
		<path id="Trazado_11" class="st0" d="M111.1,120.3c-3.9-2.1-7.2-5.2-9.4-9.1c-2.4-4.2-3.6-8.9-3.5-13.7c-0.1-4.8,1.1-9.6,3.6-13.7
			c2.3-3.9,5.7-7.1,9.8-9.1c4.2-2.2,8.9-3.3,13.7-3.2c2.5-0.1,4.9,0.2,7.3,0.9c1.9,0.6,4.1,1.4,6.7,2.4v-1.4
			c0.1-2.6-1.1-5.1-3.1-6.6c-2.3-1.7-5.1-2.5-8-2.4c-4.4-0.1-8.5,1.7-11.6,4.8l-10.9-15.5c3-3.2,6.8-5.8,10.9-7.3
			c4.8-1.9,10-2.9,15.1-2.8c9.3,0,16.6,2.7,22.1,8c5.5,5.3,8.2,12.6,8.2,22v49h-22.8v-3.9c-1.9,1.6-4.1,2.8-6.6,3.5
			c-2.8,0.9-5.8,1.3-8.7,1.3C119.5,123.5,115.1,122.4,111.1,120.3z M136.4,104c1.8-1.7,2.8-4.1,2.7-6.6c0.1-2.5-0.9-5-2.7-6.7
			c-3.7-3.3-9.3-3.3-13,0c-1.8,1.7-2.8,4.2-2.7,6.7c-0.1,2.5,0.9,4.9,2.7,6.6C127.1,107.3,132.7,107.3,136.4,104z"/>
		<path id="Trazado_12" class="st0" d="M194.8,118.2c-6-3.4-11-8.3-14.4-14.4c-7-12.7-7-28.1,0-40.7c3.4-6,8.4-11,14.4-14.4
			c6.3-3.5,13.5-5.3,20.8-5.2c7.6-0.2,15,1.8,21.5,5.7c6.2,3.9,11.1,9.5,14.1,16.1l-20.1,10.3c-1.1-3.2-3.1-5.9-5.9-7.8
			c-2.9-1.8-6.3-2.7-9.7-2.7c-4.7-0.2-9.3,1.7-12.6,5.1c-3.3,3.4-4.9,7.8-4.9,13.2s1.6,9.8,4.9,13.2c3.3,3.4,7.9,5.2,12.6,5.1
			c3.4,0.1,6.8-0.8,9.7-2.7c2.8-1.9,4.9-4.6,5.9-7.8l20.1,10.3c-3,6.7-7.9,12.3-14.1,16.2c-6.5,3.9-14,5.9-21.5,5.7
			C208.4,123.6,201.2,121.8,194.8,118.2z"/>
		<path id="Trazado_13" class="st0" d="M302.4,0l9.2,18.6l-40,18.7l-9.1-18.6L302.4,0z M288.1,44.5v78h-22.8v-78H288.1z"/>
		<path id="Trazado_14" class="st0" d="M315.6,120.3c-3.9-2.1-7.2-5.2-9.4-9.1c-2.4-4.2-3.6-8.9-3.5-13.7c-0.1-4.8,1.1-9.6,3.6-13.7
			c2.3-3.9,5.7-7.1,9.8-9.1c4.2-2.2,8.9-3.3,13.7-3.2c2.5-0.1,4.9,0.2,7.3,0.9c1.9,0.6,4.1,1.4,6.7,2.4v-1.4
			c0.1-2.6-1.1-5.1-3.1-6.6c-2.3-1.7-5.1-2.5-8-2.4c-4.4-0.1-8.5,1.7-11.6,4.8l-10.9-15.5c3-3.2,6.8-5.8,10.9-7.3
			c4.8-1.9,10-2.9,15.1-2.8c9.3,0,16.6,2.7,22.1,8s8.2,12.6,8.2,22v49h-22.8v-3.9c-1.9,1.6-4.1,2.8-6.6,3.5
			c-2.8,0.9-5.8,1.3-8.7,1.3C324,123.5,319.6,122.4,315.6,120.3z M340.9,104c1.8-1.7,2.8-4.1,2.7-6.6c0.1-2.5-0.9-5-2.7-6.7
			c-3.7-3.3-9.3-3.3-13,0c-1.8,1.7-2.8,4.2-2.7,6.7c-0.1,2.5,0.9,4.9,2.7,6.6C331.6,107.3,337.2,107.3,340.9,104z"/>
		<path id="Trazado_15" class="st0" d="M384.9,119.2c-2.8-2.7-4.3-6.4-4.2-10.3c-0.1-3.9,1.5-7.6,4.2-10.4c2.6-2.8,6.3-4.3,10.1-4.3
			c3.9-0.1,7.6,1.4,10.3,4.2c2.8,2.8,4.3,6.5,4.2,10.5c0.1,3.9-1.5,7.6-4.3,10.3c-2.7,2.7-6.4,4.3-10.2,4.2
			C391.2,123.5,387.5,122,384.9,119.2z"/>
	</g>
</g>
<g id="Grupo_6" transform="translate(0 26.781)">
	<g id="Grupo_5">
		<path id="Trazado_16" class="st0" d="M23.4,5.3v87.2h49v22H0V5.3H23.4z"/>
		<path id="Trazado_17" class="st0" d="M97.2,112.4c-3.9-2.1-7.2-5.2-9.4-9.1c-2.4-4.2-3.6-8.9-3.5-13.7c-0.1-4.8,1.1-9.6,3.6-13.7
			c2.3-3.9,5.7-7.1,9.8-9.1c4.2-2.2,8.9-3.3,13.7-3.2c2.5-0.1,4.9,0.2,7.3,0.9c1.9,0.6,4.1,1.4,6.7,2.4v-1.4
			c0.1-2.6-1.1-5.1-3.1-6.6c-2.3-1.7-5.1-2.5-8-2.4c-4.4-0.1-8.5,1.7-11.6,4.8L91.8,45.7c3-3.2,6.8-5.8,10.9-7.3
			c4.8-1.9,10-2.9,15.1-2.8c9.3,0,16.6,2.7,22.1,8s8.2,12.6,8.2,22v49h-22.8v-3.9c-1.9,1.6-4.1,2.8-6.6,3.5
			c-2.8,0.9-5.8,1.3-8.7,1.3C105.6,115.6,101.2,114.5,97.2,112.4z M122.5,96c1.8-1.7,2.8-4.1,2.7-6.6c0.1-2.5-0.9-5-2.7-6.7
			c-3.7-3.3-9.3-3.3-13,0c-1.8,1.7-2.8,4.2-2.7,6.7c-0.1,2.5,0.9,4.9,2.7,6.6C113.2,99.3,118.8,99.3,122.5,96z"/>
		<path id="Trazado_18" class="st0" d="M190.9,111.4c-5-2.5-9.4-6.2-12.6-10.8c-3.1-4.4-5.2-9.4-6-14.8l23.1-5
			c0.4,3.4,1.9,6.5,4.2,8.9c2.4,2.3,5.7,3.6,9.1,3.4c3.4,0.2,6.8-1.2,9.1-3.7c2.3-2.7,3.5-6.1,3.4-9.7c0.1-2.6-0.6-5.1-2-7.3
			c-1.3-1.8-3-3.3-5.1-4.2c-2.7-1.2-5.6-2.3-8.4-3.2c-0.6-0.3-1.2-0.5-1.9-0.7c-0.6-0.1-1.2-0.3-1.7-0.5c-7.5-2.7-13.5-6.3-18-10.8
			c-4.5-4.5-6.8-10.5-6.8-18.1c-0.1-5.5,1.3-11,4.1-15.8c2.7-4.6,6.5-8.3,11.2-10.8c5-2.7,10.5-4,16.2-3.9c6-0.1,11.9,1.3,17.2,4.3
			c4.8,2.8,8.8,6.9,11.4,11.8l-18.6,12.9c-0.8-2-2.1-3.8-3.8-5.2c-1.7-1.3-3.7-1.9-5.9-1.9c-2.2-0.1-4.4,0.7-6,2.2
			c-3.1,3.3-3,8.5,0.3,11.7c0.2,0.2,0.5,0.5,0.8,0.7c2.2,1.5,6.1,3.1,11.5,4.8c2.5,0.8,4,1.4,4.5,1.6c7.8,2.8,13.9,6.6,18.3,11.4
			s6.6,11.5,6.6,20.1c0.1,6.6-1.5,13.2-4.8,19c-3.1,5.5-7.6,10-13,13c-5.6,3.1-12,4.8-18.4,4.7C202.5,115.6,196.4,114.2,190.9,111.4
			z"/>
		<path id="Trazado_19" class="st0" d="M260.3,25c-2.8-2.7-4.3-6.4-4.2-10.3c-0.1-3.9,1.5-7.6,4.2-10.4c2.6-2.8,6.3-4.3,10.1-4.3
			c3.9-0.1,7.6,1.4,10.3,4.2c2.8,2.8,4.3,6.5,4.2,10.5c0.1,3.9-1.5,7.6-4.3,10.3c-2.7,2.7-6.4,4.3-10.2,4.2
			C266.6,29.2,262.9,27.7,260.3,25z M282,36.5v78h-22.8v-78H282z"/>
		<path id="Trazado_20" class="st0" d="M322.2,3.1v111.4h-22.8V5.6L322.2,3.1z"/>
		<path id="Trazado_21" class="st0" d="M362.5,3.1v111.4h-22.8V5.6L362.5,3.1z"/>
		<path id="Trazado_22" class="st0" d="M390.1,112.4c-3.9-2.1-7.2-5.2-9.4-9.1c-2.4-4.2-3.6-8.9-3.5-13.7c-0.1-4.8,1.1-9.6,3.6-13.7
			c2.3-3.9,5.7-7.1,9.8-9.1c4.2-2.2,8.9-3.3,13.7-3.2c2.5-0.1,4.9,0.2,7.3,0.9c1.9,0.6,4.1,1.4,6.7,2.4v-1.4
			c0.1-2.6-1.1-5.1-3.1-6.6c-2.3-1.7-5.1-2.5-8-2.4c-4.4-0.1-8.5,1.7-11.6,4.8l-10.9-15.5c3-3.2,6.8-5.8,10.9-7.3
			c4.8-1.9,10-2.9,15.1-2.8c9.3,0,16.6,2.7,22.1,8s8.2,12.6,8.2,22v49h-22.8v-3.9c-1.9,1.6-4.1,2.8-6.6,3.5
			c-2.8,0.9-5.8,1.3-8.7,1.3C398.5,115.6,394.1,114.5,390.1,112.4z M415.4,96c1.8-1.7,2.8-4.1,2.7-6.6c0.1-2.5-0.9-5-2.7-6.7
			c-3.7-3.3-9.3-3.3-13,0c-1.8,1.7-2.8,4.2-2.7,6.7c-0.1,2.5,0.9,4.9,2.7,6.6C406.1,99.3,411.7,99.3,415.4,96z"/>
	</g>
</g>
<g id="Grupo_7" transform="translate(482.295)">
	<path id="Trazado_23" class="st1" d="M113.2,65L67.9,75.5v11.8l7.5,1.7v-4.2l37.7,8.7v49.9h7.5V93.5l37.7-8.7v47.3h7.5V12.2
		L113.2,0V65z M120.7,47l37.7,8.7v18L120.7,65L120.7,47z"/>
	<path id="Trazado_24" class="st1" d="M67.9,132.1h7.5v-17.3l-7.5,1.7L67.9,132.1z"/>
	<path id="Trazado_25" class="st1" d="M0,22.6v132.1h7.5v-47.3l33.9,7.8V88.5L7.5,96.3V78.2l37.7,8.7V166h7.5l0-131.2L0,22.6z"/>
	<path id="Trazado_26" class="st1" d="M56.6,88.5L56.6,88.5l0,26.7h0l34-7.8v47.3h7.5V98.1L56.6,88.5z"/>
</g>
</svg>
